<?xml version="1.0" encoding="utf-8"?>
<svg viewBox="186.477 110.8533 130.19 307.14" xmlns="http://www.w3.org/2000/svg">
  <g style="opacity:0.30000000000000004" transform="matrix(1, 0, 0, 1, 56.226624372998174, -10.486909068925812)">
    <path d="M132.11,203.49l2.6,2.43a8.45,8.45,0,0,0,8-4.5c.72-1.43,1-3.08,2-4.32,1.87-2.33,5.3-2.41,8.15-3.3a13.28,13.28,0,0,0,8.53-8.45A36.3,36.3,0,0,0,132.11,203.49Z"/>
  </g>
  <rect x="157.595" y="129.399" width="9.51" height="4.58" style="fill:#263238" transform="matrix(1, 0, 0, 1, 88.79200113999832, 5.234316903864098)"/>
  <rect x="113.355" y="133.469" width="71.36" height="32.72" style="fill: rgb(255, 255, 255);" transform="matrix(1, 0, 0, 1, 88.79200113999832, 5.234316903864098)"/>
  <path d="M 164.325 150.059 C 164.325 155.427 168.676 159.779 174.045 159.779 L 197.985 159.779 L 197.985 140.339 L 174.045 140.339 C 168.676 140.339 164.325 144.691 164.325 150.059 Z" style="fill: rgb(227, 189, 140);" transform="matrix(1, 0, 0, 1, 88.79200113999832, 5.234316903864098)"/>
  <rect x="134.065" y="166.179" width="33.04" height="14.34" style="fill: rgb(255, 255, 255);" transform="matrix(1, 0, 0, 1, 88.79200113999832, 5.234316903864098)"/>
  <rect x="145.145" y="122.329" width="33.68" height="8.34" style="fill: rgb(255, 255, 255);" transform="matrix(1, 0, 0, 1, 88.79200113999832, 5.234316903864098)"/>
  <rect x="205.205" y="140.339" width="16.84" height="19.44" style="fill: rgb(227, 189, 140);" transform="matrix(1, 0, 0, 1, 88.79200113999832, 5.234316903864098)"/>
  <polygon points="205.205 140.339 198.835 133.969 227.065 133.969 222.045 140.339 205.205 140.339" style="fill: rgb(255, 255, 255);" transform="matrix(1, 0, 0, 1, 88.79200113999832, 5.234316903864098)"/>
  <path d="M 222.045 159.779 C 222.045 159.779 227.875 167.259 227.875 166.179 L 227.875 135.179 L 222.045 140.369 L 222.045 159.779 Z" style="fill: rgb(255, 255, 255);" transform="matrix(1, 0, 0, 1, 88.79200113999832, 5.234316903864098)"/>
  <polygon points="205.205 140.339 197.985 135.149 197.985 164.939 205.205 159.779 205.205 140.339" style="fill: rgb(255, 255, 255);" transform="matrix(1, 0, 0, 1, 88.79200113999832, 5.234316903864098)"/>
  <polygon points="200.675 166.289 205.205 159.779 222.045 159.779 225.605 166.289 200.675 166.289" style="fill: rgb(255, 255, 255);" transform="matrix(1, 0, 0, 1, 88.79200113999832, 5.234316903864098)"/>
  <path d="M 220.595 149.779 C 220.595 154.99 214.953 158.248 210.44 155.642 C 205.926 153.036 205.926 146.522 210.44 143.916 C 211.472 143.32 212.643 143.007 213.835 143.009 C 217.572 143.009 220.6 146.041 220.595 149.779 Z" style="fill: rgb(1, 1, 1);" transform="matrix(1, 0, 0, 1, 88.79200113999832, 5.234316903864098)"/>
  <path d="M 170.115 130.359 C 169.859 129.126 169.771 127.865 169.855 126.609 C 169.771 125.356 169.858 124.098 170.115 122.869 C 170.371 124.098 170.458 125.356 170.375 126.609 C 170.458 127.865 170.37 129.126 170.115 130.359 Z" style="fill:#263238" transform="matrix(1, 0, 0, 1, 88.79200113999832, 5.234316903864098)"/>
  <path d="M 153.995 130.359 C 153.733 129.127 153.645 127.865 153.735 126.609 C 153.645 125.356 153.733 124.097 153.995 122.869 C 154.251 124.098 154.338 125.356 154.255 126.609 C 154.338 127.865 154.25 129.126 153.995 130.359 Z" style="fill:#263238" transform="matrix(1, 0, 0, 1, 88.79200113999832, 5.234316903864098)"/>
  <path d="M 132.815 166.179 C 132.815 166.039 144.325 165.979 158.525 166.049 C 172.725 166.119 184.225 166.299 184.225 166.449 C 184.225 166.599 172.715 166.649 158.515 166.569 C 144.315 166.489 132.815 166.329 132.815 166.179 Z" style="fill:#263238" transform="matrix(1, 0, 0, 1, 88.79200113999832, 5.234316903864098)"/>
  <path d="M 154.575 166.949 C 154.435 166.949 154.315 159.509 154.315 150.329 C 154.315 141.149 154.435 133.709 154.575 133.709 C 154.715 133.709 154.845 141.149 154.845 150.329 C 154.845 159.509 154.725 166.949 154.575 166.949 Z" style="fill:#263238" transform="matrix(1, 0, 0, 1, 88.79200113999832, 5.234316903864098)"/>
  <polygon points="97.685 412.759 136.175 220.779 142.405 222.079 101.535 412.759 97.685 412.759" style="fill: rgb(255, 255, 255);" transform="matrix(1, 0, 0, 1, 88.79200113999832, 5.234316903864098)"/>
  <polygon points="203.875 412.759 167.115 220.779 161.095 224.649 200.025 412.759 203.875 412.759" style="fill: rgb(255, 255, 255);" transform="matrix(1, 0, 0, 1, 88.79200113999832, 5.234316903864098)"/>
  <polygon points="143.805 220.779 149.035 199.439 154.475 199.439 159.645 220.779 143.805 220.779" style="fill: rgb(227, 189, 140);" transform="matrix(1, 0, 0, 1, 88.79200113999832, 5.234316903864098)"/>
  <rect x="147.705" y="180.519" width="7.4" height="20.33" style="fill: rgb(227, 189, 140);" transform="matrix(1, 0, 0, 1, 88.79200113999832, 5.234316903864098)"/>
  <circle cx="151.645" cy="198.089" r="7.4" style="fill: rgb(255, 255, 255);" transform="matrix(1, 0, 0, 1, 88.79200113999832, 5.234316903864098)"/>
  <rect x="136.175" y="220.779" width="30.93" height="6" style="fill: rgb(255, 255, 255);" transform="matrix(1, 0, 0, 1, 88.79200113999832, 5.234316903864098)"/>
  <rect x="114.455" y="122.329" width="5.72" height="11.13" style="fill: rgb(227, 189, 140);" transform="matrix(1, 0, 0, 1, 88.79200113999832, 5.234316903864098)"/>
  <rect x="103.265" y="105.759" width="30.81" height="17.16" style="fill: rgb(255, 255, 255);" transform="matrix(1, 0, 0, 1, 88.79200113999832, 5.234316903864098)"/>
  <rect x="99.615" y="106.969" width="4.26" height="14.13" style="fill: rgb(255, 255, 255);" transform="matrix(1, 0, 0, 1, 88.79200113999832, 5.234316903864098)"/>
  <path d="M 121.815 122.329 C 121.557 119.553 121.47 116.765 121.555 113.979 C 121.47 111.189 121.557 108.398 121.815 105.619 C 122.078 108.397 122.165 111.189 122.075 113.979 C 122.165 116.765 122.078 119.554 121.815 122.329 Z" style="fill:#263238" transform="matrix(1, 0, 0, 1, 88.79200113999832, 5.234316903864098)"/>
  <path d="M 132.305 114.539 C 132.305 117.349 129.263 119.105 126.83 117.7 C 124.396 116.295 124.396 112.783 126.83 111.378 C 127.387 111.056 128.021 110.887 128.665 110.889 C 130.679 110.889 132.31 112.525 132.305 114.539 Z" style="fill: rgb(1, 1, 1);" transform="matrix(1, 0, 0, 1, 88.79200113999832, 5.234316903864098)"/>
  <path d="M 117.595 109.659 L 111.315 109.659 C 110.818 109.659 110.415 109.256 110.415 108.759 C 110.415 108.263 110.819 107.863 111.315 107.869 L 117.595 107.869 C 118.086 107.869 118.485 108.267 118.485 108.759 C 118.49 109.254 118.09 109.659 117.595 109.659 Z" style="fill:#263238" transform="matrix(1, 0, 0, 1, 88.79200113999832, 5.234316903864098)"/>
  <path d="M 103.115 122.749 C 102.857 120.024 102.77 117.285 102.855 114.549 C 102.77 111.813 102.857 109.074 103.115 106.349 C 103.378 109.074 103.465 111.813 103.375 114.549 C 103.465 117.285 103.378 120.024 103.115 122.749 Z" style="fill:#263238" transform="matrix(1, 0, 0, 1, 88.79200113999832, 5.234316903864098)"/>
</svg>